{"title":"River.Monsters.S03E04.HDTV.XviD-tNe.avi","uid":6361142,"size":362960896,"categoryP":"video","categoryS":"tv_shows","magnet":"?xt=urn:btih:eca4719f02c5309a5e00ffa33edb2c19da48d2d2&amp;dn=River.Monsters.S03E04.HDTV.XviD-tNe.avi&amp;tr=udp%3A%2F%2Ftracker.openbittorrent.com%3A80&amp;tr=udp%3A%2F%2Fopen.demonii.com%3A1337&amp;tr=udp%3A%2F%2Ftracker.coppersurfer.tk%3A6969&amp;tr=udp%3A%2F%2Fexodus.desync.com%3A6969","seeders":0,"leechers":1,"uploader":"trialNerror","files":1,"time":1304333728,"description":"Format                           : AVI\nFormat/Info                      : Audio Video Interleave\nFile size                        : 346 MiB\nDuration                         : 43mn 15s\nOverall bit rate                 : 1 119 Kbps\nWriting application              : VirtualDubMod 1.5.10.2 (build 2542/release)\nWriting library                  : VirtualDubMod build 2542/release\n\nVideo\nID                               : 0\nFormat                           : MPEG-4 Visual\nFormat profile                   : Advanced Simple@L5\nFormat settings, BVOP            : Yes\nFormat settings, QPel            : No\nFormat settings, GMC             : No warppoints\nFormat settings, Matrix          : Default (H.263)\nCodec ID                         : XVID\nCodec ID/Hint                    : XviD\nDuration                         : 43mn 15s\nBit rate                         : 984 Kbps\nWidth                            : 624 pixels\nHeight                           : 352 pixels\nDisplay aspect ratio             : 16:9\nFrame rate                       : 29.970 fps\nColor space                      : YUV\nChroma subsampling               : 4:2:0\nBit depth                        : 8 bits\nScan type                        : Progressive\nBits/(Pixel*Frame)               : 0.149\nStream size                      : 304 MiB (88%)\nWriting library                  : XviD 58\n\nAudio\nID                               : 1\nFormat                           : MPEG Audio\nFormat version                   : Version 1\nFormat profile                   : Layer 3\nMode                             : Joint stereo\nMode extension                   : MS Stereo\nCodec ID                         : 55\nCodec ID/Hint                    : MP3\nDuration                         : 43mn 15s\nBit rate mode                    : Variable\nBit rate                         : 121 Kbps\nNominal bit rate                 : 128 Kbps\nChannel(s)                       : 2 channels\nSampling rate                    : 48.0 KHz\nStream size                      : 37.6 MiB (11%)\nAlignment                        : Aligned on interleaves\nInterleave, duration             : 24 ms (0.72 video frame)\nInterleave, preload duration     : 546 ms\nWriting library                  : LAME3.99a\nEncoding settings                : -m j -V 5 -q 2 -lowpass 17 --abr 128\n\n","torrent":{"xt":"urn:btih:eca4719f02c5309a5e00ffa33edb2c19da48d2d2","amp;dn":"River.Monsters.S03E04.HDTV.XviD-tNe.avi","amp;tr":["udp%3A%2F%2Ftracker.openbittorrent.com%3A80","udp%3A%2F%2Fopen.demonii.com%3A1337","udp%3A%2F%2Ftracker.coppersurfer.tk%3A6969","udp%3A%2F%2Fexodus.desync.com%3A6969"],"infoHash":"eca4719f02c5309a5e00ffa33edb2c19da48d2d2","infoHashBuffer":{"type":"Buffer","data":[236,164,113,159,2,197,48,154,94,0,255,163,62,219,44,25,218,72,210,210]},"announce":[],"urlList":[]}}